<svg width="24" height="24" viewBox="0 0 24 24" fill="none" xmlns="http://www.w3.org/2000/svg">
    <rect width="24" height="24" rx="12" fill="#EDEFF0"/>
    <g clip-path="url(#clip0_103_6410)">
        <path d="M12.0167 15.1176C11.9659 15.1348 11.937 15.0907 11.9025 15.0704C10.2104 14.0717 8.52014 13.0723 6.83177 12.0723C6.81542 12.064 6.79845 12.0571 6.78101 12.0515V12.0292L6.81096 12.0119C6.85348 12.0007 6.89535 11.9872 6.93634 11.9713L10.9238 10.157C11.2791 9.9951 11.6344 9.8357 11.9898 9.67529H12.0152C12.0152 9.72606 12.0152 9.77123 12.0152 9.81946C12.0165 11.5857 12.017 13.3517 12.0167 15.1176Z" fill="#393939"/>
        <path d="M12.0195 9.67652H11.9941C11.9941 9.62576 11.9992 9.575 11.9992 9.5217C11.9992 7.53789 11.9992 5.55391 11.9992 3.56977C11.9934 3.51881 11.9968 3.46721 12.0094 3.41748H12.02C12.2287 3.72561 12.4104 4.05049 12.6023 4.36877C14.1225 6.89033 15.6418 9.41154 17.1603 11.9324C17.175 11.9573 17.1867 11.9832 17.1999 12.0106C17.1569 12.0014 17.1146 11.989 17.0735 11.9735C16.7948 11.8476 16.5151 11.7197 16.2389 11.5913C15.8064 11.3933 15.3738 11.1957 14.9409 10.9984L12.8556 10.0537C12.5779 9.92577 12.2987 9.8014 12.0195 9.67652Z" fill="#343434"/>
        <path d="M12.0112 3.41484C11.9986 3.46457 11.9952 3.51616 12.001 3.56712C12.001 5.55093 12.001 7.53491 12.001 9.51905C12.001 9.56981 11.998 9.62058 11.996 9.67388C11.6406 9.83429 11.2853 9.99368 10.9299 10.1556L6.94252 11.9699C6.90153 11.9858 6.85966 11.9993 6.81714 12.0105C6.93237 11.7709 7.08212 11.5536 7.21867 11.3242C8.80078 8.69433 10.3841 6.06499 11.9685 3.43616C11.979 3.42159 11.9904 3.40769 12.0026 3.39453L12.0112 3.41484Z" fill="#8C8C8C"/>
        <path d="M12.0199 9.67627C12.2991 9.80115 12.5783 9.92552 12.857 10.0514L14.9423 10.9961C15.3755 11.1931 15.8081 11.3907 16.2403 11.589C16.5185 11.7164 16.7987 11.8454 17.0748 11.9713C17.116 11.9867 17.1582 11.9991 17.2012 12.0083C17.252 12.0718 17.1769 12.0743 17.154 12.088C16.721 12.3469 16.286 12.6022 15.852 12.8591C14.6062 13.5962 13.3609 14.3331 12.1158 15.0698C12.0843 15.0881 12.0503 15.1018 12.0173 15.1175C12.0173 13.352 12.0173 11.5863 12.0173 9.82044C12.0178 9.77221 12.0194 9.72449 12.0199 9.67627Z" fill="#141414"/>
        <path d="M11.999 16.1204L15.2605 14.198C15.8832 13.8305 16.5056 13.4626 17.1276 13.0944L17.1839 13.0635C17.1895 13.1142 17.1545 13.1411 17.1331 13.1706C15.7118 15.1744 14.2904 17.1775 12.8691 19.1799C12.6 19.5596 12.3315 19.9413 12.0599 20.318C12.0457 20.3378 12.0239 20.4307 11.9802 20.3322C12.0147 20.3027 11.9995 20.2632 11.9995 20.2307C11.9999 18.8601 11.9997 17.49 11.999 16.1204Z" fill="#3D3D3C"/>
        <path d="M11.9987 16.1206C11.9987 17.4902 11.9987 18.8595 11.9987 20.2284C11.9987 20.2634 12.014 20.303 11.9794 20.3299C11.9068 20.2862 11.8754 20.2081 11.8271 20.1436C10.1791 17.822 8.5318 15.5002 6.8854 13.1779C6.86459 13.1485 6.84529 13.117 6.82397 13.0845C6.86662 13.0596 6.88946 13.0937 6.91433 13.1084C8.58104 14.0925 10.2474 15.0775 11.9134 16.0633C11.9444 16.0826 11.9708 16.1024 11.9987 16.1206Z" fill="#8C8C8C"/>
        <path d="M12.011 3.41433L11.999 3.39584C12.021 3.38185 12.018 3.40234 12.0215 3.41283L12.011 3.41433Z" fill="#393939"/>
    </g>
    <defs>
        <clipPath id="clip0_103_6410">
            <rect width="10.4348" height="16.9857" fill="white" transform="translate(6.78271 3.39111)"/>
        </clipPath>
    </defs>
</svg>
