<svg width="24" height="24" viewBox="0 0 24 24" fill="none" xmlns="http://www.w3.org/2000/svg">
    <path d="M12 24C18.65 24 24 18.65 24 12C24 5.34996 18.65 0 12 0C5.34996 0 0 5.34996 0 12C0 18.65 5.34996 24 12 24Z" fill="#2775CA"/>
    <path d="M15.2998 13.9001C15.2998 12.1501 14.2498 11.5501 12.1498 11.3002C10.6498 11.1001 10.3498 10.7002 10.3498 10.0001C10.3498 9.30002 10.8499 8.85014 11.8498 8.85014C12.7498 8.85014 13.2499 9.15014 13.4998 9.90014C13.5499 10.0501 13.6999 10.1501 13.8499 10.1501H14.6498C14.8498 10.1501 14.9998 10.0001 14.9998 9.80018V9.75014C14.7998 8.6501 13.8998 7.80014 12.7498 7.70018V6.50018C12.7498 6.30014 12.5998 6.15014 12.3499 6.1001H11.5999C11.3998 6.1001 11.2498 6.2501 11.1998 6.50018V7.65014C9.69977 7.85018 8.74985 8.85014 8.74985 10.1002C8.74985 11.7502 9.74981 12.4001 11.8498 12.6502C13.2499 12.9001 13.6999 13.2001 13.6999 14.0002C13.6999 14.8002 12.9998 15.3502 12.0499 15.3502C10.7498 15.3502 10.2998 14.8001 10.1498 14.0501C10.0999 13.8502 9.94985 13.7501 9.79985 13.7501H8.94977C8.74985 13.7501 8.59985 13.9001 8.59985 14.1001V14.1502C8.79977 15.4001 9.59981 16.3001 11.2498 16.5502V17.7502C11.2498 17.9501 11.3998 18.1001 11.6498 18.1501H12.3998C12.5998 18.1501 12.7498 18.0001 12.7999 17.7502V16.5502C14.2999 16.3001 15.2998 15.2501 15.2998 13.9001V13.9001Z" fill="white"/>
    <path d="M9.44982 19.1499C5.54982 17.75 3.54978 13.4 4.99986 9.54992C5.74986 7.44992 7.39986 5.84996 9.44982 5.09996C9.64986 5 9.74982 4.85 9.74982 4.59992V3.89996C9.74982 3.69992 9.64986 3.54992 9.44982 3.5C9.39978 3.5 9.29982 3.5 9.24978 3.54992C4.49982 5.04992 1.89978 10.1 3.39978 14.85C4.29978 17.6499 6.44982 19.8 9.24978 20.7C9.44982 20.7999 9.64986 20.7 9.69978 20.4999C9.74982 20.45 9.74982 20.4 9.74982 20.3V19.5999C9.74982 19.4499 9.59982 19.25 9.44982 19.1499ZM14.7499 3.54992C14.5498 3.44996 14.3498 3.54992 14.2999 3.74996C14.2498 3.8 14.2498 3.84992 14.2498 3.95V4.64996C14.2498 4.85 14.3998 5.04992 14.5498 5.15C18.4498 6.54992 20.4499 10.8999 18.9998 14.75C18.2498 16.85 16.5998 18.45 14.5498 19.2C14.3498 19.2999 14.2498 19.4499 14.2498 19.7V20.4C14.2498 20.6 14.3498 20.75 14.5498 20.7999C14.5999 20.7999 14.6998 20.7999 14.7499 20.75C19.4998 19.25 22.0999 14.1999 20.5999 9.44996C19.6999 6.59996 17.4998 4.44992 14.7499 3.54992V3.54992Z" fill="white"/>
</svg>
