<svg width="24" height="24" viewBox="0 0 24 24" fill="none" xmlns="http://www.w3.org/2000/svg">
    <path d="M6.01179 9.73588L6.01251 9.7366L10.1484 9.73588V8.13748H7.95243C8.97195 7.06876 10.4064 6.39988 12 6.39988C15.0922 6.39988 17.5999 8.90692 17.5999 11.9998H19.2C19.2 8.02324 15.9766 4.7998 12 4.7998C9.96027 4.7998 8.12187 5.65204 6.81267 7.01548L6.81171 4.80004H5.21259V8.93597C5.21259 9.37828 5.57043 9.73588 6.01179 9.73588Z" fill="black"/>
    <path d="M17.9875 14.2642V14.2634L13.8516 14.2642V15.8626H16.0469C15.0281 16.9313 13.5938 17.5999 12 17.5999C8.90783 17.5999 6.40007 15.0931 6.40007 12H4.79999C4.79999 15.9766 8.02343 19.2 12 19.2C14.039 19.2 15.8781 18.3475 17.1873 16.9846V19.2H18.7874V15.0641C18.7874 14.622 18.4296 14.2642 17.9875 14.2642Z" fill="black"/>
</svg>
