<svg width="20" height="20" viewBox="0 0 20 20" fill="none" xmlns="http://www.w3.org/2000/svg">
    <path d="M10.0003 18.3332C14.6027 18.3332 18.3337 14.6022 18.3337 9.99984C18.3337 5.39746 14.6027 1.6665 10.0003 1.6665C5.39795 1.6665 1.66699 5.39746 1.66699 9.99984C1.66699 14.6022 5.39795 18.3332 10.0003 18.3332Z" stroke="#9EA3AE" stroke-width="1.5"/>
    <path d="M13.8188 8.05523C13.1743 6.74715 11.7022 5.83301 9.98934 5.83301C7.82346 5.83301 6.04257 7.29474 5.83301 9.16634" stroke="#9EA3AE" stroke-width="1.5" stroke-linecap="round" stroke-linejoin="round"/>
    <path d="M12.0781 8.10185H13.6666C13.9428 8.10185 14.1666 7.87799 14.1666 7.60185V6.25" stroke="#9EA3AE" stroke-width="1.5" stroke-linecap="round" stroke-linejoin="round"/>
    <path d="M6.18066 11.3889C6.82522 13.024 8.29726 14.1667 10.0101 14.1667C12.176 14.1667 13.9569 12.3395 14.1664 10" stroke="#9EA3AE" stroke-width="1.5" stroke-linecap="round" stroke-linejoin="round"/>
    <path d="M7.92149 11.3516H6.33301C6.05687 11.3516 5.83301 11.5755 5.83301 11.8516V13.6664" stroke="#9EA3AE" stroke-width="1.5" stroke-linecap="round" stroke-linejoin="round"/>
</svg>
