<svg width="21" height="19" viewBox="0 0 21 19" fill="none" xmlns="http://www.w3.org/2000/svg">
    <path d="M19.005 3.9575V2.75C19.005 2.05381 18.7284 1.38613 18.2362 0.893845C17.7439 0.401562 17.0762 0.125 16.38 0.125H2.625C1.92881 0.125 1.26113 0.401562 0.768845 0.893845C0.276562 1.38613 0 2.05381 0 2.75V15.6125C0 16.3783 0.304218 17.1128 0.845729 17.6543C1.38724 18.1958 2.12169 18.5 2.8875 18.5H18.1125C18.8783 18.5 19.6128 18.1958 20.1543 17.6543C20.6958 17.1128 21 16.3783 21 15.6125V6.6875C20.9966 6.08051 20.802 5.49003 20.4439 4.99995C20.0857 4.50986 19.5823 4.14511 19.005 3.9575ZM2.625 1.7H16.38C16.6585 1.7 16.9255 1.81062 17.1225 2.00754C17.3194 2.20445 17.43 2.47152 17.43 2.75V3.8H2.625C2.34652 3.8 2.07945 3.68937 1.88254 3.49246C1.68562 3.29555 1.575 3.02848 1.575 2.75C1.575 2.47152 1.68562 2.20445 1.88254 2.00754C2.07945 1.81062 2.34652 1.7 2.625 1.7ZM19.425 15.6125C19.425 15.7849 19.3911 15.9555 19.3251 16.1148C19.2591 16.274 19.1625 16.4187 19.0406 16.5406C18.9187 16.6625 18.774 16.7591 18.6148 16.8251C18.4555 16.8911 18.2849 16.925 18.1125 16.925H2.8875C2.5394 16.925 2.20556 16.7867 1.95942 16.5406C1.71328 16.2944 1.575 15.9606 1.575 15.6125V5.1125L1.911 5.2175L2.1 5.3225C2.27655 5.3561 2.45578 5.37367 2.6355 5.375H18.1755C18.5117 5.3937 18.8281 5.53987 19.0602 5.78374C19.2924 6.0276 19.4228 6.35081 19.425 6.6875V15.6125Z" fill="#DD88CF"/>
    <path d="M15.2881 12.4624C16.013 12.4624 16.6006 11.8748 16.6006 11.1499C16.6006 10.425 16.013 9.8374 15.2881 9.8374C14.5632 9.8374 13.9756 10.425 13.9756 11.1499C13.9756 11.8748 14.5632 12.4624 15.2881 12.4624Z" fill="#DD88CF"/>
</svg>
