<svg width="40" height="40" viewBox="0 0 40 40" fill="none" xmlns="http://www.w3.org/2000/svg">
    <defs>
        <clipPath id="clip0_516_1939">
            <rect width="40" height="40" fill="white"/>
        </clipPath>
    </defs>
    <g clip-path="url(#clip0_516_1939)">
        <path d="M32.0833 3.3335H7.91668C6.7011 3.3335 5.53531 3.81638 4.67577 4.67592C3.81623 5.53547 3.33334 6.70125 3.33334 7.91683V32.0835C3.33666 33.0142 3.62635 33.9213 4.16306 34.6816C4.69977 35.442 5.4575 36.0187 6.33334 36.3335C6.36493 36.3703 6.40496 36.3989 6.45001 36.4168H6.60001H6.66668C7.08342 36.5413 7.51515 36.6086 7.95001 36.6168H32.1167C33.3179 36.6082 34.4676 36.1283 35.3186 35.2805C36.1695 34.4326 36.6536 33.2846 36.6667 32.0835V7.91683C36.6667 6.70125 36.1838 5.53547 35.3242 4.67592C34.4647 3.81638 33.2989 3.3335 32.0833 3.3335ZM5.83334 7.91683C5.83334 7.3643 6.05284 6.83439 6.44354 6.44369C6.83424 6.05299 7.36414 5.8335 7.91668 5.8335H32.0833C32.3569 5.8335 32.6278 5.88738 32.8806 5.99208C33.1334 6.09678 33.363 6.25024 33.5565 6.44369C33.7499 6.63715 33.9034 6.86681 34.0081 7.11957C34.1128 7.37233 34.1667 7.64324 34.1667 7.91683V17.0835H33.5167H32.4667H31.8H31.6667L30.7833 17.2502L30.4167 17.3502L29.7667 17.5335L29.3833 17.6668C29.1167 17.7668 28.8333 17.8668 28.55 18.0002L28.3167 18.1002C27.9679 18.2583 27.6284 18.4364 27.3 18.6335L26.9167 18.8668L26.15 19.3668L25.7833 19.6502C25.4235 19.9143 25.0786 20.198 24.75 20.5002L24.65 20.5835C24.2833 20.9168 23.9167 21.3002 23.55 21.7002C23.4333 21.8335 23.3333 21.9668 23.2167 22.0835C23.1 22.2002 22.6667 22.7502 22.4 23.1002L22.0667 23.5335C21.7 24.0502 21.3333 24.5835 20.9833 25.2002C20.1153 26.6189 19.0801 27.9282 17.9 29.1002C17.35 29.6335 16.8 30.1168 16.2333 30.5835H16.15C15.5278 31.0502 14.9278 31.4668 14.35 31.8335C14 32.0502 13.65 32.2502 13.2833 32.4335C12.2486 33.0169 11.1458 33.4703 10 33.7835C9.18534 34.0004 8.3421 34.0903 7.50001 34.0502H7.20001C6.79846 33.9095 6.45012 33.6483 6.20254 33.3023C5.95495 32.9563 5.8202 32.5423 5.81668 32.1168L5.83334 7.91683ZM32.0833 34.1668H15.4167L15.5833 34.0668C15.85 33.9002 16.1333 33.7002 16.4 33.5002C16.7684 33.275 17.1245 33.0302 17.4667 32.7668L17.6333 32.6502C18.2833 32.1168 18.9167 31.5668 19.55 30.9835C20.8808 29.67 22.0451 28.1978 23.0167 26.6002C23.3167 26.1002 23.6333 25.6502 23.9333 25.2168L24.2333 24.8335C24.4333 24.5502 24.65 24.2668 24.8667 24.0168L25.2 23.6335L25.85 22.9502C25.9526 22.8642 26.0474 22.7694 26.1333 22.6668C26.45 22.3835 26.75 22.1168 27.05 21.8835L27.1833 21.7835L27.9833 21.2335L28.2833 21.0335L28.8833 20.7002L29.2 20.5502L29.8 20.2835L30.0667 20.1835L30.8667 19.9168H31.05L31.6333 19.7835H31.9H32.3333H32.6167H33.5333H34.1V32.2835C34.0514 32.7894 33.8196 33.26 33.4482 33.6069C33.0767 33.9538 32.5914 34.1529 32.0833 34.1668Z" fill="#EDE8ED"/>
        <path d="M16.6667 20.0002C17.3259 20.0002 17.9704 19.8047 18.5186 19.4384C19.0667 19.0721 19.494 18.5515 19.7463 17.9424C19.9986 17.3334 20.0646 16.6631 19.936 16.0165C19.8073 15.3699 19.4899 14.776 19.0237 14.3098C18.5575 13.8436 17.9636 13.5262 17.317 13.3975C16.6704 13.2689 16.0002 13.3349 15.3911 13.5872C14.782 13.8395 14.2614 14.2668 13.8951 14.8149C13.5288 15.3631 13.3333 16.0076 13.3333 16.6668C13.3333 17.5509 13.6845 18.3987 14.3097 19.0239C14.9348 19.649 15.7826 20.0002 16.6667 20.0002ZM16.6667 15.8335C16.8315 15.8335 16.9926 15.8824 17.1297 15.9739C17.2667 16.0655 17.3735 16.1957 17.4366 16.3479C17.4996 16.5002 17.5162 16.6678 17.484 16.8294C17.4518 16.9911 17.3725 17.1395 17.2559 17.2561C17.1394 17.3726 16.9909 17.452 16.8293 17.4842C16.6676 17.5163 16.5 17.4998 16.3478 17.4367C16.1955 17.3737 16.0654 17.2668 15.9738 17.1298C15.8822 16.9928 15.8333 16.8316 15.8333 16.6668C15.8333 16.4458 15.9211 16.2339 16.0774 16.0776C16.2337 15.9213 16.4457 15.8335 16.6667 15.8335Z" fill="#EDE8ED"/>
    </g>
</svg>
