<svg width="20" height="20" viewBox="0 0 20 20" fill="none" xmlns="http://www.w3.org/2000/svg">
    <path d="M10 0C8.02219 0 6.08879 0.58649 4.4443 1.6853C2.79981 2.78412 1.51809 4.3459 0.761209 6.17317C0.00433284 8.00043 -0.193701 10.0111 0.192152 11.9509C0.578004 13.8907 1.53041 15.6725 2.92894 17.0711C4.32746 18.4696 6.10929 19.422 8.0491 19.8079C9.98891 20.1937 11.9996 19.9957 13.8268 19.2388C15.6541 18.4819 17.2159 17.2002 18.3147 15.5557C19.4135 13.9112 20 11.9778 20 10C20 8.68678 19.7413 7.38642 19.2388 6.17317C18.7363 4.95991 17.9997 3.85752 17.0711 2.92893C16.1425 2.00035 15.0401 1.26375 13.8268 0.761205C12.6136 0.258658 11.3132 0 10 0ZM10 18.5C8.31886 18.5 6.67548 18.0015 5.27766 17.0675C3.87984 16.1335 2.79037 14.806 2.14703 13.2528C1.50368 11.6996 1.33536 9.99057 1.66333 8.34173C1.9913 6.69289 2.80085 5.17834 3.9896 3.98959C5.17834 2.80085 6.6929 1.9913 8.34174 1.66333C9.99058 1.33535 11.6996 1.50368 13.2528 2.14702C14.806 2.79037 16.1335 3.87984 17.0675 5.27765C18.0015 6.67547 18.5 8.31886 18.5 10C18.4974 12.2535 17.601 14.414 16.0075 16.0075C14.414 17.601 12.2535 18.4974 10 18.5Z" fill="white"/>
    <path d="M12.06 8.19998C11.9944 8.09453 11.9055 8.00557 11.8 7.93998L6.50001 4.75998C6.35493 4.67559 6.186 4.6416 6.01957 4.66331C5.85314 4.68501 5.69858 4.7612 5.58001 4.87998L4.88001 5.57998C4.7605 5.69602 4.68365 5.84899 4.66187 6.01413C4.64009 6.17927 4.67467 6.34693 4.76001 6.48998L7.94001 11.8C8.00559 11.9054 8.09455 11.9944 8.20001 12.06L13.51 15.24C13.6255 15.3065 13.7567 15.341 13.89 15.34C13.9888 15.3422 14.087 15.3238 14.1782 15.2859C14.2695 15.248 14.3518 15.1915 14.42 15.12L15.12 14.42C15.2419 14.3033 15.3203 14.1485 15.3421 13.9811C15.3639 13.8138 15.3279 13.644 15.24 13.5L12.06 8.19998ZM10.87 9.12998L10.94 9.24998H8.16001L6.54001 6.52998L10.87 9.12998ZM9.13001 10.87L9.06001 10.75H11.84L13.47 13.46L9.13001 10.87Z" fill="white"/>
</svg>
