<svg width="23" height="16" viewBox="0 0 23 16" fill="none" xmlns="http://www.w3.org/2000/svg">
    <path d="M22.931 7.49273C21.9623 5.26628 20.3646 3.37118 18.3339 2.04012C16.3032 0.709064 13.928 0 11.5 0C9.07196 0 6.69678 0.709064 4.6661 2.04012C2.63542 3.37118 1.03766 5.26628 0.0689999 7.49273C0.023451 7.60205 0 7.7193 0 7.83773C0 7.95616 0.023451 8.07341 0.0689999 8.18273C1.03766 10.4092 2.63542 12.3043 4.6661 13.6353C6.69678 14.9664 9.07196 15.6755 11.5 15.6755C13.928 15.6755 16.3032 14.9664 18.3339 13.6353C20.3646 12.3043 21.9623 10.4092 22.931 8.18273C22.9765 8.07341 23 7.95616 23 7.83773C23 7.7193 22.9765 7.60205 22.931 7.49273ZM11.5 13.9442C9.47277 13.9438 7.48697 13.3702 5.77166 12.2898C4.05636 11.2093 2.68144 9.66595 1.8055 7.83773C2.68217 6.01047 4.0574 4.46817 5.77265 3.38865C7.4879 2.30913 9.47332 1.73635 11.5 1.73635C13.5267 1.73635 15.5121 2.30913 17.2274 3.38865C18.9426 4.46817 20.3178 6.01047 21.1945 7.83773C20.3186 9.66595 18.9436 11.2093 17.2283 12.2898C15.513 13.3702 13.5272 13.9438 11.5 13.9442Z" fill="#DD88CF"/>
    <path d="M11.5 2.375C10.4196 2.375 9.36348 2.69537 8.46518 3.2956C7.56687 3.89582 6.86673 4.74895 6.45329 5.74709C6.03984 6.74523 5.93167 7.84356 6.14244 8.90318C6.35321 9.9628 6.87346 10.9361 7.63741 11.7001C8.40135 12.464 9.37468 12.9843 10.4343 13.195C11.4939 13.4058 12.5922 13.2976 13.5904 12.8842C14.5885 12.4707 15.4417 11.7706 16.0419 10.8723C16.6421 9.974 16.9625 8.91788 16.9625 7.8375C16.9625 6.38875 16.387 4.99935 15.3625 3.97493C14.3381 2.95051 12.9487 2.375 11.5 2.375ZM11.5 11.575C10.7608 11.575 10.0382 11.3558 9.42353 10.9451C8.80891 10.5344 8.32986 9.95072 8.04698 9.26778C7.7641 8.58484 7.69008 7.83335 7.83429 7.10835C7.97851 6.38335 8.33447 5.71739 8.85717 5.19469C9.37987 4.67199 10.0458 4.31603 10.7708 4.17181C11.4958 4.0276 12.2473 4.10162 12.9303 4.3845C13.6132 4.66738 14.1969 5.14643 14.6076 5.76106C15.0183 6.37569 15.2375 7.09829 15.2375 7.8375C15.2344 8.82781 14.8397 9.7767 14.1394 10.477C13.4392 11.1772 12.4903 11.572 11.5 11.575Z" fill="#DD88CF"/>
</svg>
