<svg width="24" height="24" viewBox="0 0 24 24" fill="none" xmlns="http://www.w3.org/2000/svg">
    <path d="M10.6051 22.7425C10.8855 23.2341 11.4055 23.5347 11.9689 23.5347H12C12.2822 23.5293 12.5578 23.4478 12.7976 23.2988C13.0374 23.1499 13.2325 22.9389 13.3624 22.6883L14.4404 20.6136C19.9847 19.6697 24 15.6002 24 10.9104C24 5.446 18.6169 1 12 1C5.38314 1 0 5.446 0 10.9104C0 13.2126 0.975059 15.4539 2.74506 17.2198C4.43652 18.9113 6.78614 20.1017 9.36869 20.5784L10.6051 22.7425Z" fill="white"/>
    <path d="M16.3539 14.8526C15.9057 14.8526 15.5414 14.4884 15.5414 14.0401V10.3295C15.5414 9.8812 15.9057 9.51691 16.3539 9.51691C16.8022 9.51691 17.1665 9.8812 17.1665 10.3295V14.0415C17.1665 14.4897 16.8022 14.8526 16.3539 14.8526Z" fill="#DD88CF"/>
    <path d="M15.299 7.74422C15.299 7.87404 15.3245 8.0026 15.3742 8.12254C15.4239 8.24248 15.4967 8.35146 15.5885 8.44326C15.6803 8.53506 15.7893 8.60788 15.9092 8.65757C16.0292 8.70725 16.1577 8.73282 16.2876 8.73282C16.4174 8.73282 16.5459 8.70725 16.6659 8.65757C16.7858 8.60788 16.8948 8.53506 16.9866 8.44326C17.0784 8.35146 17.1512 8.24248 17.2009 8.12254C17.2506 8.0026 17.2762 7.87404 17.2762 7.74422C17.2762 7.61439 17.2506 7.48584 17.2009 7.3659C17.1512 7.24595 17.0784 7.13697 16.9866 7.04517C16.8948 6.95337 16.7858 6.88055 16.6659 6.83087C16.5459 6.78119 16.4174 6.75562 16.2876 6.75562C16.1577 6.75562 16.0292 6.78119 15.9092 6.83087C15.7893 6.88055 15.6803 6.95337 15.5885 7.04517C15.4967 7.13697 15.4239 7.24595 15.3742 7.3659C15.3245 7.48584 15.299 7.61439 15.299 7.74422V7.74422Z" fill="#DD88CF"/>
    <path d="M12.4496 6.63641C12.0014 6.63641 11.6371 7.00071 11.6371 7.44896V10.0058C11.6005 10.0004 11.564 9.99766 11.5261 9.99766H8.74171C8.73494 9.99766 8.72953 9.99901 8.72276 9.99901V7.44896C8.72276 7.00071 8.35846 6.63641 7.91021 6.63641C7.46195 6.63641 7.09766 7.00071 7.09766 7.44896V14.1701C7.09766 14.6184 7.46195 14.9827 7.91021 14.9827C8.35846 14.9827 8.72276 14.6184 8.72276 14.1701V11.6214C8.72953 11.6214 8.73494 11.6228 8.74171 11.6228H11.5247C11.5626 11.6228 11.5992 11.6187 11.6357 11.6146V14.1715C11.6357 14.6197 12 14.984 12.4483 14.984C12.8966 14.984 13.2608 14.6197 13.2608 14.1715V7.44896C13.2622 6.99935 12.8979 6.63641 12.4496 6.63641V6.63641Z" fill="#DD88CF"/>
</svg>
