<svg width="21" height="20" viewBox="0 0 21 20" fill="none" xmlns="http://www.w3.org/2000/svg">
    <path fill-rule="evenodd" clip-rule="evenodd" d="M0.75 10C0.75 15.514 5.23602 20 10.75 20C16.264 20 20.75 15.514 20.75 10C20.75 4.48602 16.264 0 10.75 0C5.23602 0 0.75 4.48602 0.75 10ZM2.08333 10C2.08333 5.22141 5.97141 1.33333 10.75 1.33333C15.5286 1.33333 19.4167 5.22141 19.4167 10C19.4167 14.7786 15.5286 18.6667 10.75 18.6667C5.97141 18.6667 2.08333 14.7786 2.08333 10ZM10.3536 15.8741C10.4735 15.9581 10.6122 16 10.75 16C10.8878 16 11.0265 15.9581 11.1464 15.8741L15.4321 12.8741C15.6307 12.7345 15.75 12.5005 15.75 12.25V7.75011C15.75 7.49967 15.6307 7.26563 15.4314 7.12602L11.1457 4.12606C10.9059 3.95798 10.5938 3.95798 10.3536 4.12606L6.06792 7.12602C5.86926 7.26563 5.75 7.49966 5.75 7.75011V12.25C5.75 12.5005 5.86926 12.7345 6.06792 12.8741L10.3536 15.8741ZM10.75 14.3486L7.17857 11.8489V8.1515L10.75 5.65177L14.3214 8.1515V11.8489L10.75 14.3486Z" fill="#A58AA5"/>
</svg>
