<svg width="21" height="18" viewBox="0 0 21 18" fill="none" xmlns="http://www.w3.org/2000/svg">
    <path d="M5.5 17.75C5.41383 17.7445 5.32926 17.7242 5.25 17.69C5.10571 17.6405 4.98022 17.5477 4.89072 17.4242C4.80121 17.3007 4.75207 17.1525 4.75 17V13.75H3C2.27065 13.75 1.57118 13.4603 1.05546 12.9445C0.539731 12.4288 0.25 11.7293 0.25 11V3C0.25 2.27065 0.539731 1.57118 1.05546 1.05546C1.57118 0.539731 2.27065 0.25 3 0.25H17.5C18.2293 0.25 18.9288 0.539731 19.4445 1.05546C19.9603 1.57118 20.25 2.27065 20.25 3V11C20.25 11.7293 19.9603 12.4288 19.4445 12.9445C18.9288 13.4603 18.2293 13.75 17.5 13.75H9.81L6.03 17.53C5.88948 17.6707 5.69885 17.7498 5.5 17.75ZM3 1.75C2.66848 1.75 2.35054 1.8817 2.11612 2.11612C1.8817 2.35054 1.75 2.66848 1.75 3V11C1.75 11.3315 1.8817 11.6495 2.11612 11.8839C2.35054 12.1183 2.66848 12.25 3 12.25H5.5C5.59886 12.2487 5.69699 12.2671 5.7886 12.3043C5.8802 12.3416 5.96341 12.3968 6.03333 12.4667C6.10324 12.5366 6.15844 12.6198 6.19565 12.7114C6.23286 12.803 6.25135 12.9011 6.25 13V15.19L8.97 12.47C9.11052 12.3293 9.30116 12.2502 9.5 12.25H17.5C17.6642 12.25 17.8267 12.2177 17.9784 12.1548C18.13 12.092 18.2678 12 18.3839 11.8839C18.5 11.7678 18.592 11.63 18.6549 11.4784C18.7177 11.3267 18.75 11.1642 18.75 11V3C18.75 2.83585 18.7177 2.6733 18.6549 2.52165C18.592 2.36999 18.5 2.23219 18.3839 2.11612C18.2678 2.00004 18.13 1.90797 17.9784 1.84515C17.8267 1.78233 17.6642 1.75 17.5 1.75H3Z" fill="#A58AA5"/>
</svg>
