<svg width="21" height="20" viewBox="0 0 21 20" fill="none" xmlns="http://www.w3.org/2000/svg">
    <path d="M10.5 1.5C12.1811 1.5 13.8245 1.99852 15.2224 2.93251C16.6202 3.8665 17.7096 5.19402 18.353 6.74719C18.9963 8.30036 19.1647 10.0094 18.8367 11.6583C18.5087 13.3071 17.6992 14.8217 16.5104 16.0104C15.3217 17.1992 13.8071 18.0087 12.1583 18.3367C10.5094 18.6646 8.80037 18.4963 7.24719 17.853C5.69402 17.2096 4.36651 16.1202 3.43251 14.7223C2.49852 13.3245 2 11.6811 2 10C2.00265 7.74647 2.89903 5.586 4.49252 3.99252C6.08601 2.39903 8.24648 1.50265 10.5 1.5ZM10.5 0C8.52219 0 6.58879 0.58649 4.9443 1.6853C3.29981 2.78412 2.01809 4.3459 1.26121 6.17317C0.504333 8.00043 0.306299 10.0111 0.692152 11.9509C1.078 13.8907 2.03041 15.6725 3.42894 17.0711C4.82746 18.4696 6.60929 19.422 8.5491 19.8079C10.4889 20.1937 12.4996 19.9957 14.3268 19.2388C16.1541 18.4819 17.7159 17.2002 18.8147 15.5557C19.9135 13.9112 20.5 11.9778 20.5 10C20.5 8.68678 20.2413 7.38642 19.7388 6.17317C19.2363 4.95991 18.4997 3.85752 17.5711 2.92893C16.6425 2.00035 15.5401 1.26375 14.3268 0.761205C13.1136 0.258658 11.8132 0 10.5 0Z" fill="#A58AA5"/>
    <path d="M7.93 16.09C7.64344 16.0894 7.36157 16.0172 7.11 15.88C6.84935 15.7331 6.63239 15.5195 6.48129 15.2613C6.3302 15.003 6.25038 14.7092 6.25 14.41V5.59003C6.25038 5.2908 6.3302 4.99705 6.48129 4.73878C6.63239 4.48051 6.84935 4.26698 7.11 4.12003C7.36995 3.96994 7.66483 3.89093 7.965 3.89093C8.26517 3.89093 8.56005 3.96994 8.82 4.12003L15.95 8.53003C16.194 8.68048 16.3954 8.89087 16.5352 9.14117C16.6749 9.39148 16.7482 9.67337 16.7482 9.96003C16.7482 10.2467 16.6749 10.5286 16.5352 10.7789C16.3954 11.0292 16.194 11.2396 15.95 11.39L8.82 15.8C8.55704 15.9796 8.24825 16.0802 7.93 16.09ZM7.93 5.41003H7.84C7.81202 5.42617 7.78891 5.44954 7.77307 5.47769C7.75724 5.50584 7.74927 5.53774 7.75 5.57003V14.39C7.74927 14.4223 7.75724 14.4542 7.77307 14.4824C7.78891 14.5105 7.81202 14.5339 7.84 14.55C7.86888 14.5667 7.90165 14.5755 7.935 14.5755C7.96835 14.5755 8.00112 14.5667 8.03 14.55L15.16 10.15C15.1873 10.1331 15.2099 10.1096 15.2256 10.0816C15.2413 10.0536 15.2497 10.0221 15.25 9.99003C15.249 9.95943 15.2402 9.92961 15.2244 9.90336C15.2087 9.87711 15.1865 9.85531 15.16 9.84003L8.03 5.44003C8.00012 5.42089 7.96548 5.41049 7.93 5.41003Z" fill="#A58AA5"/>
</svg>
