<svg width="20" height="19" viewBox="0 0 20 19" fill="none" xmlns="http://www.w3.org/2000/svg">
    <path d="M16.7595 8.70978C16.5504 8.71251 16.3507 8.79679 16.2028 8.94464C16.055 9.09249 15.9707 9.29224 15.968 9.50132V16.6252C15.968 16.8351 15.8846 17.0364 15.7361 17.1849C15.5877 17.3333 15.3864 17.4167 15.1764 17.4167H2.37462C2.16554 17.414 1.96579 17.3297 1.81794 17.1818C1.67008 17.034 1.58581 16.8342 1.58308 16.6252V3.81279C1.58585 3.6047 1.67047 3.40607 1.81861 3.2599C1.96676 3.11373 2.1665 3.03179 2.37462 3.03181H9.49847C9.7084 3.03181 9.90973 2.94841 10.0582 2.79997C10.2066 2.65153 10.29 2.4502 10.29 2.24027C10.29 2.03034 10.2066 1.82901 10.0582 1.68057C9.90973 1.53212 9.7084 1.44873 9.49847 1.44873H2.37462C1.74665 1.44872 1.14425 1.69746 0.69923 2.1405C0.254205 2.58355 0.00279095 3.18484 0 3.81279V16.6252C0 17.255 0.250182 17.8589 0.695509 18.3043C1.14084 18.7496 1.74483 18.9998 2.37462 18.9998H15.1764C15.8062 18.9998 16.4102 18.7496 16.8555 18.3043C17.3009 17.8589 17.5511 17.255 17.5511 16.6252V9.50132C17.5511 9.29139 17.4677 9.09006 17.3192 8.94162C17.1708 8.79317 16.9694 8.70978 16.7595 8.70978Z" fill="#DD88CF"/>
    <path d="M18.9968 0.710174C19.0126 0.640706 19.0126 0.568565 18.9968 0.499097C18.9359 0.342157 18.826 0.209081 18.6834 0.119696C18.5407 0.0303118 18.373 -0.0105968 18.2053 0.00306583H13.1922C12.9822 0.00306583 12.7809 0.0864598 12.6325 0.234902C12.484 0.383344 12.4006 0.584676 12.4006 0.794605C12.4006 1.00453 12.484 1.20586 12.6325 1.35431C12.7809 1.50275 12.9822 1.58614 13.1922 1.58614H16.295L8.36906 9.50153C8.22083 9.64995 8.13757 9.85113 8.13757 10.0609C8.13757 10.2706 8.22083 10.4718 8.36906 10.6202C8.51748 10.7685 8.71866 10.8517 8.92842 10.8517C9.13817 10.8517 9.33936 10.7685 9.48777 10.6202L17.4137 2.70485V5.80768C17.4137 6.01761 17.4971 6.21894 17.6455 6.36739C17.794 6.51583 17.9953 6.59922 18.2053 6.59922C18.4152 6.59922 18.6165 6.51583 18.765 6.36739C18.9134 6.21894 18.9968 6.01761 18.9968 5.80768V0.794605C19.0015 0.766659 19.0015 0.738119 18.9968 0.710174Z" fill="#DD88CF"/>
</svg>
