<svg width="20" height="20" viewBox="0 0 20 20" fill="none" xmlns="http://www.w3.org/2000/svg">
    <path d="M19 14.37C18.6449 14.0437 18.2104 13.8161 17.74 13.71C16.1954 13.325 14.7784 12.5424 13.63 11.44C14.7259 10.6661 15.5458 9.56216 15.9697 8.2893C16.3936 7.01643 16.3995 5.64136 15.9864 4.36494C15.5733 3.08852 14.7629 1.97761 13.6735 1.1945C12.5842 0.411382 11.273 -0.00291731 9.93151 0.0121138C8.58999 0.0271448 7.28841 0.470719 6.2169 1.27805C5.14539 2.08537 4.36009 3.21415 3.97569 4.49951C3.5913 5.78487 3.62795 7.15947 4.0803 8.42251C4.53265 9.68556 5.37699 10.7709 6.49 11.52C5.41891 12.4859 4.13887 13.191 2.75 13.58L2.45 13.66C1.97054 13.7734 1.52362 13.9956 1.14385 14.3095C0.764075 14.6234 0.461652 15.0204 0.26 15.47C0.0932231 15.8694 0.00494811 16.2972 0 16.73C0.0026376 17.5964 0.348001 18.4266 0.960675 19.0393C1.57335 19.652 2.40355 19.9973 3.27 20H16.73C17.1598 20.0013 17.5856 19.9176 17.9829 19.7537C18.3803 19.5899 18.7413 19.3491 19.0452 19.0451C19.3491 18.7412 19.5899 18.3802 19.7538 17.9829C19.9176 17.5856 20.0013 17.1598 20 16.73C19.9986 16.2899 19.9094 15.8545 19.7377 15.4492C19.566 15.044 19.3152 14.6771 19 14.37ZM5.2 6.29997C5.19894 5.44179 5.42798 4.59903 5.86325 3.85943C6.29853 3.11984 6.92413 2.51046 7.6749 2.09477C8.42568 1.67907 9.27417 1.47226 10.132 1.49586C10.9899 1.51946 11.8257 1.77262 12.5525 2.22897C13.2793 2.68532 13.8704 3.32818 14.2644 4.09059C14.6583 4.853 14.8407 5.70708 14.7924 6.5639C14.7442 7.42072 14.4671 8.24893 13.99 8.9623C13.513 9.67566 12.8534 10.2481 12.08 10.62C11.0344 11.1277 9.83898 11.2344 8.72 10.92L8.53 10.87H8.47L8 10.68C7.16043 10.2979 6.44935 9.68106 5.95252 8.90388C5.45569 8.1267 5.19434 7.22236 5.2 6.29997ZM18 18C17.838 18.1672 17.6436 18.2995 17.4287 18.3889C17.2137 18.4784 16.9828 18.5229 16.75 18.52H3.27C3.03587 18.52 2.80406 18.4735 2.588 18.3833C2.37194 18.2931 2.17592 18.161 2.0113 17.9945C1.84667 17.828 1.71671 17.6305 1.62895 17.4135C1.54118 17.1964 1.49735 16.9641 1.5 16.73C1.49601 16.4958 1.54381 16.2636 1.64 16.05C1.75353 15.8148 1.91856 15.6082 2.12283 15.4454C2.3271 15.2827 2.56538 15.168 2.82 15.11L3.13 15C4.94156 14.5117 6.59325 13.5566 7.92 12.23C8.2313 12.3299 8.5486 12.41 8.87 12.47H9.03C9.33737 12.5214 9.64836 12.5482 9.96 12.55H10.11C10.415 12.5403 10.719 12.5102 11.02 12.46H11.21C11.5231 12.3979 11.8307 12.311 12.13 12.2H12.18C13.5747 13.6767 15.3667 14.7186 17.34 15.2C17.5522 15.239 17.7494 15.3359 17.91 15.48C18.0826 15.6457 18.2202 15.8444 18.3146 16.0643C18.4091 16.2841 18.4585 16.5207 18.46 16.76C18.4695 16.9868 18.4337 17.2133 18.3547 17.4262C18.2758 17.6391 18.1552 17.8342 18 18Z" fill="#A58AA5"/>
</svg>
